Coordinates
version=1
nRows=8
nColumns=40
inDegrees=yes

Units are S.I. units (second, meters, Newtons, ...)
Angles are in degrees.

endheader
time	pelvis_tilt	pelvis_list	pelvis_rotation	pelvis_tx	pelvis_ty	pelvis_tz	hip_flexion_r	hip_adduction_r	hip_rotation_r	knee_angle_r	knee_angle_r_beta	ankle_angle_r	subtalar_angle_r	mtp_angle_r	hip_flexion_l	hip_adduction_l	hip_rotation_l	knee_angle_l	knee_angle_l_beta	ankle_angle_l	subtalar_angle_l	mtp_angle_l	lumbar_extension	lumbar_bending	lumbar_rotation	arm_flex_r	arm_add_r	arm_rot_r	elbow_flex_r	pro_sup_r	wrist_flex_r	wrist_dev_r	arm_flex_l	arm_add_l	arm_rot_l	elbow_flex_l	pro_sup_l	wrist_flex_l	wrist_dev_l
     28.67000000	     -7.04028179	     -5.80970735	      3.71165815	      0.80424456	      0.91907433	      0.38180164	      3.47968879	     -1.79334565	    -12.99238039	     27.59284682	     27.59284682	     12.82857164	      0.23236471	    -12.43941785	     26.62310111	     -3.78631825	      3.40775900	     30.07569771	     30.07569771	     13.85051172	    -12.84627908	      7.22166332	     -9.07900993	      4.19656950	      6.21770742	     63.34879562	    -15.85878611	      3.74494531	     70.33988190	     44.95264809	      0.00000000	      0.00000000	    -14.74771219	    -11.39055518	     15.33915348	     34.75712639	     45.04968083	      0.00000000	      0.00000000
     28.69242857	     -6.61589573	     -5.66076169	      3.15466644	      0.80542186	      0.91905493	      0.37784984	      6.92774665	     -3.23189365	    -12.02994694	     35.47851768	     35.47851768	     11.42513380	     -2.59797051	    -13.99122677	     25.88145257	     -3.67152625	      2.64540716	     30.54693167	     30.54693167	     14.48657220	    -12.70578292	      6.96585934	     -9.46822408	      4.32569891	      5.40256370	     59.95745497	    -15.42776887	      3.87561026	     69.15361261	     44.97664142	      0.00000000	      0.00000000	    -12.49287737	    -11.52829522	     15.27160894	     34.91151396	     45.09711480	      0.00000000	      0.00000000
     28.71485714	     -6.49892355	     -5.65363669	      2.61595177	      0.80639665	      0.91810904	      0.37408814	     10.66613205	     -4.06764896	    -10.29898542	     42.98010131	     42.98010131	      9.29419562	     -6.75781706	    -14.83653012	     25.57694181	     -3.59391652	      2.20880219	     31.16812606	     31.16812606	     15.16415836	    -12.89799928	      6.82082619	     -9.39367105	      4.61306300	      4.89528286	     56.01942694	    -15.18051530	      3.35378257	     67.47794708	     45.04051299	      0.00000000	      0.00000000	     -9.83034381	    -11.70240859	     15.20887671	     34.76620970	     45.15544309	      0.00000000	      0.00000000
     28.73728571	     -6.03778550	     -5.52520304	      2.11146514	      0.80757224	      0.91709136	      0.37035205	     13.83370227	     -4.79867135	     -8.53297251	     49.98163410	     49.98163410	      7.18854537	    -10.35893614	    -14.44034603	     25.00376807	     -3.37687553	      1.79873333	     32.05863624	     32.05863624	     16.16453383	    -13.13888240	      7.15674281	     -9.69947366	      4.78270784	      4.81829179	     51.82449050	    -14.68007048	      0.59056363	     65.69646572	     45.20520073	      0.00000000	      0.00000000	     -6.09677325	    -11.74797122	     15.73746808	     32.72413282	     45.20524061	      0.00000000	      0.00000000
     28.75971429	     -5.57233964	     -5.34116010	      1.67802418	      0.80873080	      0.91561241	      0.36665986	     16.91265664	     -5.46192768	     -6.87805324	     56.69213055	     56.69213055	      6.32896184	    -12.45522484	    -10.23869855	     24.45945279	     -3.00069958	      1.60827433	     32.97717136	     32.97717136	     16.96191115	    -13.76800294	      7.13464454	    -10.01072728	      4.93098720	      4.56323414	     47.54925567	    -14.47558410	     -0.88270182	     63.73795667	     45.32298079	      0.00000000	      0.00000000	     -2.74753924	    -12.04585726	     16.26913240	     31.99693951	     45.25038631	      0.00000000	      0.00000000
     28.78214286	     -5.05447876	     -5.15683074	      1.30300811	      0.80988868	      0.91387979	      0.36316837	     19.75723807	     -5.93625343	     -5.25932181	     62.72232927	     62.72232927	      6.05609300	    -13.91564077	     -4.63629653	     23.90299561	     -2.55187291	      1.61214065	     33.94978326	     33.94978326	     17.73710034	    -14.62840541	      7.13169012	    -10.37009558	      5.11559855	      4.29917942	     43.22681144	    -14.26811976	     -2.21737239	     61.29930546	     45.44496172	      0.00000000	      0.00000000	      0.62779752	    -12.39557129	     16.73326620	     31.53519588	     45.29633044	      0.00000000	      0.00000000
     28.80457143	     -4.50153023	     -4.98727813	      0.97842834	      0.81097011	      0.91198966	      0.35995755	     22.34665329	     -6.23527874	     -3.72828476	     67.84731070	     67.84731070	      5.92788629	    -15.20009607	      0.64301214	     23.35196641	     -2.06822545	      1.76339259	     34.97279409	     34.97279409	     18.57812675	    -15.59229385	      7.35198270	    -10.77153594	      5.33821013	      4.05199434	     38.74772480	    -14.08851321	     -3.53950264	     58.57600254	     45.56946737	      0.00000000	      0.00000000	      4.03430888	    -12.77308195	     17.08572336	     31.31145033	     45.35163108	      0.00000000	      0.00000000
     28.82700000	     -3.97580983	     -4.84571959	      0.69169026	      0.81200075	      0.90999992	      0.35702203	     24.63906807	     -6.43307819	     -2.39554456	     71.75190643	     71.75190643	      4.87780748	    -16.83357139	      1.99221233	     22.82880664	     -1.58557101	      1.99513929	     35.95422545	     35.95422545	     19.27847040	    -16.62569609	      7.30034985	    -11.18917540	      5.64527713	      3.75415362	     34.13477932	    -14.20861388	     -3.71269490	     55.92566178	     45.64564786	      0.00000000	      0.00000000	      7.10809051	    -13.26584884	     16.84709071	     32.21974448	     45.43993400	      0.00000000	      0.00000000
